HIERARCHY
ROOT Hips
{
  OFFSET 3.13124 94.3669 -3.18751
  CHANNELS  6 Xposition Yposition Zposition Zrotation Xrotation Yrotation
  JOINT LeftUpLeg
  {
    OFFSET 8.64259 1.95398 -2.38835
    CHANNELS 3 Zrotation Xrotation Yrotation
    JOINT LeftLeg
    {
      OFFSET 43.7702 0 0
      CHANNELS 3 Zrotation Xrotation Yrotation
      JOINT LeftFoot
      {
        OFFSET 40.6238 0 0
        CHANNELS 3 Zrotation Xrotation Yrotation
        JOINT LeftToeBase
        {
          OFFSET 12.7242 0 0
          CHANNELS 3 Zrotation Xrotation Yrotation
          End Site
          {
            OFFSET 0 0 0
          }
        }
      }
    }
  }
  JOINT RightUpLeg
  {
    OFFSET -8.2249 1.95398 -2.59336
    CHANNELS 3 Zrotation Xrotation Yrotation
    JOINT RightLeg
    {
      OFFSET 43.5653 0 0
      CHANNELS 3 Zrotation Xrotation Yrotation
      JOINT RightFoot
      {
        OFFSET 40.6238 0 0
        CHANNELS 3 Zrotation Xrotation Yrotation
        JOINT RightToeBase
        {
          OFFSET 12.7242 0 0
          CHANNELS 3 Zrotation Xrotation Yrotation
          End Site
          {
            OFFSET 0 0 0
          }
        }
      }
    }
  }
  JOINT Spine
  {
    OFFSET 0.165834 0.87714 6.61349
    CHANNELS 3 Zrotation Xrotation Yrotation
    JOINT Spine1
    {
      OFFSET 7.38962 1.71661e-005 0
      CHANNELS 3 Zrotation Xrotation Yrotation
      JOINT Spine2
      {
        OFFSET 11.9445 1.14441e-005 0
        CHANNELS 3 Zrotation Xrotation Yrotation
        JOINT Spine3
        {
          OFFSET 14.7254 4.19617e-005 0
          CHANNELS 3 Zrotation Xrotation Yrotation
          JOINT Spine4
          {
            OFFSET 10.9679 0 0
            CHANNELS 3 Zrotation Xrotation Yrotation
            JOINT RightShoulder
            {
              OFFSET 2.46616 -1.6653 3.69651
              CHANNELS 3 Zrotation Xrotation Yrotation
              JOINT RightArm
              {
                OFFSET 13.0012 0 0
                CHANNELS 3 Zrotation Xrotation Yrotation
                JOINT RightForeArm
                {
                  OFFSET 28.7848 1.52588e-005 0
                  CHANNELS 3 Zrotation Xrotation Yrotation
                  JOINT RightHand
                  {
                    OFFSET 26.5688 1.52588e-005 0
                    CHANNELS 3 Zrotation Xrotation Yrotation
                    End Site
                    {
                      OFFSET 0 0 0
                    }
                  }
                }
              }
            }
            JOINT LeftShoulder
            {
              OFFSET 2.38034 -1.29275 -3.75231
              CHANNELS 3 Zrotation Xrotation Yrotation
              JOINT LeftArm
              {
                OFFSET 16.3182 6.10352e-005 0
                CHANNELS 3 Zrotation Xrotation Yrotation
                JOINT LeftForeArm
                {
                  OFFSET 27.0901 0 0
                  CHANNELS 3 Zrotation Xrotation Yrotation
                  JOINT LeftHand
                  {
                    OFFSET 24.5451 1.52588e-005 0
                    CHANNELS 3 Zrotation Xrotation Yrotation
                    End Site
                    {
                      OFFSET 0 0 0
                    }
                  }
                }
              }
            }
            JOINT Neck
            {
              OFFSET 5.0226 -0.0266342 0
              CHANNELS 3 Zrotation Xrotation Yrotation
              JOINT Head
              {
                OFFSET 6.69363 2.86102e-005 0
                CHANNELS 3 Zrotation Xrotation Yrotation
                End Site
                {
                  OFFSET 0 0 0
                }
              }
            }
          }
        }
      }
    }
  }
}
MOTION
Frames:	18
Frame Time:	0.0333333
108.28 87.2912 92.9151 89.0722 46.3309 92.8199 -169.134 16.4784 97.9289 -16.9248 -45.3152 -12.7208 78.4418 16.1266 7.01692 28.7808 6.25319e-006 6.60086e-006 178.625 19.9132 94.1486 -48.6971 21.9674 1.46658 77.6186 1.29848 0.253425 28.7808 1.40891e-005 2.62054e-005 1.96645 6.66077 -93.766 13.3886 1.93265 -1.50013 1.71812 1.86559 -1.58358 -20.8259 2.29101 -0.850741 -0.813223 2.291 -0.850754 93.7752 -35.6985 -97.7785 -14.452 46.1491 -52.2992 176.925 -18.398 -179.998 -88.4867 36.5453 -42.9491 -117.658 -62.1411 45.8718 -17.5106 -16.7331 -7.0891 -4.35096 -20.9611 -20.0574 -32.0486 -7.12597 21.7609 22.0221 -0.147866 52.6568 10.0245 -19.904 -20.0753 
108.612 87.2655 91.2504 89.1404 48.0308 92.614 -169.263 15.9956 97.0103 -15.7487 -42.5557 -11.5769 74.766 22.1261 10.3177 28.7808 6.25319e-006 6.60086e-006 178.72 18.4185 93.486 -48.199 23.8667 1.68418 77.9741 3.23594 1.03323 28.7808 1.40891e-005 2.62054e-005 2.08108 6.6314 -93.9511 13.4284 2.13017 -1.88924 1.75774 2.04496 -1.98115 -20.7864 2.59941 -1.16154 -0.7738 2.5994 -1.16155 93.8381 -38.0095 -97.1512 -12.0784 41.909 -46.6799 176.201 -2.12299 -179.998 -92.3082 23.7866 -28.0766 -119.159 -63.1884 44.5649 -18.9702 -15.9804 -6.04362 -5.35749 -22.33 -21.4907 -30.4206 -7.35464 24.1527 20 -0.511994 55.1952 9.69655 -20.2275 -21.0196 
108.895 87.1688 89.4272 88.2453 49.984 93.2459 -169.952 15.528 95.9467 -15.6008 -42.7408 -11.2772 76.8154 21.8359 9.77968 28.7808 6.25319e-006 6.60086e-006 178.766 17.4623 92.9053 -47.6355 25.9399 1.9425 78.3282 5.39689 1.88899 28.7808 1.40891e-005 2.62054e-005 2.18666 6.55141 -94.0587 13.5808 2.32965 -2.02284 1.91023 2.23841 -2.12342 -20.6361 2.82967 -1.22884 -0.623418 2.82968 -1.22886 93.6662 -42.1464 -96.5977 -6.32341 35.5069 -40.4721 174.916 26.1353 -179.773 -83.9441 0.697885 -5.89802 -118.654 -63.3449 45.2438 -20.382 -15.2269 -5.84004 -6.88361 -26.1362 -22.1035 -27.9611 -7.37142 26.9481 18.7797 -0.936542 55.0145 9.23325 -19.8541 -20.7666 
109.136 87.297 87.5057 87.8518 52.0726 93.4663 -170.379 14.6393 94.8961 -14.3345 -39.8307 -9.86422 76.8721 23.0172 10.2993 28.7808 6.25319e-006 6.60086e-006 178.883 15.7823 92.2755 -46.4342 28.1804 2.22376 78.0475 7.4244 2.73512 28.7808 1.40891e-005 2.62054e-005 2.20226 6.48757 -94.065 13.7155 2.45318 -2.25528 2.04468 2.3513 -2.3608 -20.5016 3.01924 -1.4153 -0.488935 3.01923 -1.41532 93.4826 -44.1361 -96.5412 3.24849 27.4879 -33.1903 172.935 48.584 -178.197 -56.2508 -8.6558 10.751 -118.957 -63.9827 45.1839 -21.0538 -14.8816 -5.74316 -8.56467 -31.3237 -22.1399 -25.2175 -7.09775 29.3718 17.1362 -1.18128 54.786 9.19492 -19.214 -20.6066 
109.278 87.3038 85.3585 87.0357 54.0704 93.653 -171.435 13.9196 93.401 -13.896 -39.4062 -9.18656 78.4561 22.2436 9.61411 28.7808 6.25319e-006 6.60086e-006 178.814 13.9483 90.9905 -44.7566 29.6308 2.55793 78.4482 9.67385 3.61112 28.7808 1.40891e-005 2.62054e-005 2.23429 6.43938 -94.1719 13.8 2.55037 -2.21937 2.12951 2.45027 -2.32952 -20.4193 3.09928 -1.34954 -0.406622 3.09926 -1.34955 92.7039 -46.1087 -97.3754 18.247 19.5598 -14.6842 138.421 50.7286 -137.464 -36.8194 -2.91143 3.59932 -117.564 -63.8719 46.8038 -22.3998 -14.1842 -2.87635 -12.429 -33.0786 -27.5935 -22.0214 -6.67407 32.0099 16.6051 -1.20182 54.0385 8.77955 -18.7029 -21.2011 
108.877 87.2222 83.343 87.272 54.3295 91.6936 -172.621 12.4091 91.1545 -14.2311 -40.3053 -9.58082 79.7252 22.3611 9.40603 28.7808 6.25319e-006 6.60086e-006 178.398 12.8982 87.6808 -43.9878 25.9679 2.16598 78.6151 11.9205 4.55104 28.7808 1.40891e-005 2.62054e-005 2.40759 6.50252 -94.027 13.6509 3.07846 -2.03185 1.98174 2.98583 -2.16442 -20.5781 3.5483 -1.01868 -0.565417 3.54827 -1.01872 90.5165 -47.1276 -100.69 32.3076 9.94418 -3.22863 116.955 49.0736 -116.674 -19.5155 1.14172 -12.2545 -116.041 -64.038 48.7174 -26.6644 -11.7758 6.03107 -7.57036 -14.7138 -36.9789 -17.2992 -3.72577 22.8606 16.2422 -0.801566 53.6261 8.11159 -18.007 -21.7157 
108.801 87.3759 81.3031 87.2566 55.1267 92.0333 -172.712 11.3057 90.7873 -14.2935 -40.2052 -9.77071 81.4416 21.7354 8.82069 28.7808 6.25319e-006 6.60086e-006 178.435 12.2631 87.5398 -45.6901 30 2.52883 76.295 13.5934 5.57778 28.7808 1.40891e-005 2.62054e-005 2.55855 6.55102 -94.2427 13.542 3.36706 -2.45226 1.8728 3.2559 -2.5981 -20.6907 3.94817 -1.32604 -0.678029 3.94818 -1.32606 89.9361 -46.062 -101.86 33.651 9.12865 -4.85234 102.405 57.1122 -106.122 -15.6439 1.24831 -14.8822 -115.909 -64.9492 49.2883 -26.8276 -11.6542 5.66637 -10.5069 -18.6464 -37.8139 -17.4044 -3.91958 24.138 15.984 -0.0913758 55.1645 7.55827 -17.6982 -23.7707 
108.895 87.543 79.3057 86.7361 55.8883 93.0117 -172.431 10.3308 90.7357 -13.8452 -38.4928 -9.51492 82.7603 21.6119 8.52559 28.7808 6.25319e-006 6.60086e-006 178.461 11.3565 87.4942 -45.5131 31.2659 2.68462 73.8863 15.2094 6.71074 28.7808 1.40891e-005 2.62054e-005 2.68047 6.45806 -94.3638 13.7369 3.64818 -2.79676 2.06766 3.52161 -2.95462 -20.4991 4.31977 -1.56996 -0.486471 4.31975 -1.56998 92.4716 -42.4298 -98.5685 36.9773 5.74647 -5.56613 90.8239 52.5766 -96.0717 -28.8479 -2.74469 5.94783 -115.879 -65.4614 49.5532 -27.0573 -11.5625 5.23398 -10.035 -18.6972 -36.6664 -16.3475 -3.80092 25.2462 13.3032 -0.540532 55.3049 8.72933 -17.2736 -25.4431 
108.839 87.5374 77.5055 85.2927 56.1949 94.2775 -172.144 9.97353 90.3929 -13.9436 -37.7743 -10.0424 84.2025 21.273 8.1273 28.7808 6.25319e-006 6.60086e-006 178.441 11.1801 86.8797 -45.2616 31.6006 2.70944 72.2771 17.0556 7.89431 28.7808 1.40891e-005 2.62054e-005 2.78152 6.21902 -94.3689 14.2099 3.85955 -3.03523 2.54076 3.72229 -3.20214 -20.0289 4.59297 -1.73374 -0.0162836 4.59297 -1.73376 94.5732 -39.2935 -95.5783 39.2214 4.28442 -26.206 116.419 83.2813 -122.372 -30.6246 -4.86969 12.6629 -116.411 -65.8332 49.0794 -27.2117 -11.6133 6.15813 -7.21815 -15.1008 -35.2616 -16.3359 -3.79189 25.1995 9.29768 -1.41237 54.7986 10.3754 -16.51 -26.5327 
108.847 87.5685 75.7196 84.3148 56.6648 95.211 -171.737 9.22126 90.1507 -13.6289 -35.994 -10.2112 85.2563 21.3858 7.97807 28.7808 6.25319e-006 6.60086e-006 178.492 11.5651 86.2472 -46.4313 31.4211 2.54485 69.3171 18.29 9.14284 28.7808 1.40891e-005 2.62054e-005 2.88468 6.03895 -94.4047 14.5729 4.09377 -3.30482 2.90378 3.9445 -3.48178 -19.6692 4.89723 -1.92033 0.343459 4.89722 -1.92036 95.5442 -37.361 -94.1759 42.5754 0.326148 -21.8724 34.3825 59.9886 -44.4121 -37.0582 -10.9175 27.2643 -118.367 -65.4917 46.5996 -27.6357 -11.5015 6.48161 -4.87616 -12.0855 -33.6299 -15.3638 -3.53042 25.1796 6.39434 -1.75761 54.8654 9.18105 -15.3353 -27.9487 
108.726 87.6387 73.823 84.477 57.7546 95.0961 -171.864 7.82479 89.7342 -13.3856 -34.8967 -10.4247 86.5982 21.1093 7.63761 28.7808 6.25319e-006 6.60086e-006 177.023 5.01836 85.3556 -34.0888 27.5967 1.95405 72.783 15.2167 6.95722 28.7808 1.40891e-005 2.62054e-005 2.90438 5.90951 -94.7728 14.8095 4.17174 -3.38644 3.14026 4.01767 -3.56679 -19.4338 4.99749 -1.97426 0.57885 4.99749 -1.97428 95.2781 -37.0215 -94.7317 29.4509 11.041 -16.4775 158.391 32.848 -152.296 -39.2551 -12.5969 30.6507 -119.065 -65.1869 45.6292 -27.8849 -11.454 6.81568 -1.75575 -7.19292 -32.5319 -16.545 -3.96196 26.0479 3.87004 -2.05866 54.0549 7.34615 -13.9397 -29.1778 
108.465 87.5179 72.0648 85.5052 59.2623 93.8456 -172.019 5.97804 88.8153 -12.7015 -32.7233 -9.97394 87.2894 21.1799 7.54195 28.7808 6.25319e-006 6.60086e-006 177.53 6.84033 83.9315 -41.1541 27.1393 2.40222 68.9672 14.5609 7.34298 28.7808 1.40891e-005 2.62054e-005 2.81214 5.85915 -94.6008 14.935 4.17731 -3.59556 3.26526 4.01535 -3.77577 -19.3063 5.06197 -2.17336 0.706367 5.06196 -2.17338 95.1766 -36.3206 -95.0481 45.8112 -0.0489018 -9.02938 -27.0828 -39.4749 -37.3318 -3.48696 -2.34935 71.5095 -120.375 -65.2782 44.1204 -28.1877 -11.3247 5.97952 1.62969 -1.45565 -31.0454 -17.8397 -4.52901 27.484 1.35258 -2.71711 53.9575 5.87324 -13.1262 -30.8595 
108.256 87.3438 70.4558 86.7417 61.0969 92.1016 -172.316 4.33794 87.867 -12.23 -30.281 -9.54201 87.9828 20.9353 7.27522 28.7808 6.25319e-006 6.60086e-006 178.081 9.04387 83.0079 -47.7363 27.4679 1.93739 62.9685 11.6552 6.64501 28.7808 1.40891e-005 2.62054e-005 2.66837 5.86916 -94.3341 14.9715 4.08837 -3.65992 3.3013 3.92342 -3.8365 -19.2668 4.99869 -2.2593 0.745892 4.99869 -2.25933 95.2815 -36.2977 -94.8573 43.2701 -1.22218 -5.64126 -21.6531 -18.9705 -48.3258 -4.52478 -2.46051 58.0664 -121.038 -65.2299 43.3141 -28.7001 -11.0159 4.75337 5.79849 6.35833 -30.3272 -19.4791 -5.19303 28.6404 -0.64499 -3.4078 53.1914 4.82637 -12.5574 -32.1734 
108.111 90.5954 69.1398 88.0564 62.5547 86.1375 -174.214 12.1471 82.5237 -31.09 2.7503 2.72958 67.3935 7.70865 3.84212 28.7808 6.25319e-006 6.60086e-006 -179.285 11.605 76.2677 -50.4995 17.4636 0.48974 38.4404 12.373 12.3126 28.7808 1.40891e-005 2.62054e-005 2.41879 6.04519 -89.6949 14.9682 3.9669 -3.56713 3.29795 3.80616 -3.7382 -19.2678 4.8551 -2.20909 0.744831 4.85511 -2.20911 95.15 -37.0768 -94.9444 40.6534 0.528938 -17.8501 -0.933954 3.88012 -33.1489 -19.7173 -8.81449 43.2832 -120.524 -64.7788 43.7006 -29.4929 -10.5427 2.65086 8.89601 13.0994 -29.0301 -19.7658 -5.3576 29.1048 -2.36784 -4.13396 51.6284 4.48155 -12.2236 -32.9559 
108.451 89.2066 68.1397 89.0304 64.0161 84.574 -173.663 13.2993 81.7432 -35.9639 3.71781 2.91555 70.9535 8.09894 3.76644 28.7808 6.25319e-006 6.60086e-006 -175.368 22.1658 68.862 -60.1792 -2.18039 -0.912988 -21.1677 12.5956 42.8078 28.7808 1.40891e-005 2.62054e-005 2.24968 6.09657 -88.7567 14.9545 3.811 -3.46555 3.28406 3.65488 -3.62984 -19.2784 4.67592 -2.15919 0.734289 4.67593 -2.15922 95.134 -39.245 -94.6322 38.0427 2.9563 -22.5211 -1.86353 3.17006 -26.128 -19.8866 -7.95865 39.3237 -118.868 -64.1244 45.385 -30.008 -10.0992 1.07035 10.4073 16.2678 -29.067 -19.6589 -5.27721 28.817 -3.32927 -4.73418 49.2584 4.48115 -12.1261 -33.0494 
108.529 89.1193 66.9445 89.5493 65.4749 84.4289 -173.979 12.5962 81.5821 -36.3918 4.34745 3.512 71.794 8.38934 3.86155 28.7808 6.25319e-006 6.60086e-006 -174.734 23.8821 68.7625 -63.2392 -12.294 -1.49851 -17.9379 16.8929 49.0815 28.7808 1.40891e-005 2.62054e-005 1.49247 6.35762 -88.1449 14.3138 2.64385 -1.94237 2.6439 2.55582 -2.05684 -19.9085 3.10505 -1.05775 0.10419 3.10506 -1.05776 87.3864 -52.6291 -104.107 30.6158 8.5714 -38.355 -3.07999 4.74793 -4.94225 -21.3216 -6.0244 26.4293 -100.672 -60.4629 66.6443 -31.3063 -8.42215 -1.61381 11.1364 14.728 -33.385 -19.874 -5.3899 29.0937 3.19543 -0.159872 37.6593 3.11492 -7.82806 -27.3604 
108.621 89.1398 65.8551 90.5761 66.5455 83.8819 -174.105 11.5559 81.6559 -36.4388 4.9684 4.03999 72.4178 8.68152 3.96931 28.7808 6.25319e-006 6.60086e-006 -174.463 23.5462 71.2867 -67.653 3.58226 -0.708587 -6.63954 29.3528 60.4222 28.7808 1.40891e-005 2.62054e-005 1.12925 6.54019 -87.857 13.8992 1.96683 -1.15055 2.2292 1.91379 -1.23647 -20.317 2.22504 -0.502898 -0.304321 2.22505 -0.502907 80.4767 -59.3312 -111.831 26.5805 11.277 -41.1203 -2.69202 13.6203 -5.0551 -26.1025 -6.20128 21.6443 -91.9295 -56.8918 77.4517 -32.1576 -6.98712 -1.84064 10.2179 10.6362 -38.4982 -19.9835 -5.28542 28.3607 7.50622 1.36967 29.1889 1.51321 -5.41648 -22.8495 
108.938 88.9964 64.7838 91.3178 67.4167 83.5193 -174.033 10.8056 81.8896 -37.1336 5.81496 4.48719 73.2174 8.95348 4.03672 28.7808 6.25319e-006 6.60086e-006 -173.865 26.6796 70.6746 -68.4442 -3.81412 -1.13604 -10.043 30.3555 66.1204 28.7808 1.40891e-005 2.62054e-005 1.0608 6.60385 -87.82 13.7637 1.91185 -1.22337 2.09346 1.85614 -1.30635 -20.4515 2.19108 -0.592039 -0.438878 2.19107 -0.592041 78.2691 -60.2259 -114.473 24.1091 13.2005 -41.5381 -2.08125 26.0712 -5.33023 -29.7185 -5.30799 14.9773 -91.6329 -56.367 77.7359 -32.1702 -6.6184 -2.25303 7.36814 6.28271 -39.7785 -18.4432 -4.81873 28.2337 8.05853 0.814056 28.8586 1.09787 -5.94989 -23.2024 
